<svg xmlns="http://www.w3.org/2000/svg" version="1.1" xmlns:xlink="http://www.w3.org/1999/xlink" xmlns:svgjs="http://svgjs.dev/svgjs" width="1000" height="1000" viewBox="0 0 1000 1000"><rect width="1000" height="1000" fill="#000000"></rect><g transform="matrix(0.7,0,0,0.7,150.0000000000001,106.25)"><svg viewBox="0 0 320 360" data-background-color="#1b4571" preserveAspectRatio="xMidYMid meet" height="1125" width="1000" xmlns="http://www.w3.org/2000/svg" xmlns:xlink="http://www.w3.org/1999/xlink"><g id="tight-bounds" transform="matrix(1,0,0,1,0,0)"><svg viewBox="0 0 320 360" height="360" width="320"><g><svg></svg></g><g><svg viewBox="0 0 320 360" height="360" width="320"><g><path xmlns="http://www.w3.org/2000/svg" d="M20.961 227.22l3.726 4.658-1.863-6.056c-0.466-2.795-3.726 0.466-1.863 1.398M25.153 224.425c1.397 2.329 2.795 4.658 2.795 6.987 0 3.261 2.795 4.658 5.123 5.589-3.261-3.726-5.124-13.974-7.918-12.576M204.017 26.929c7.918 0 15.371-0.932 23.756 0.931 20.495 5.124 37.729 15.371 49.374 29.811l32.606 52.169c1.397 13.042 4.192 27.482 3.726 43.319 3.261 0 2.795-4.658 6.521-5.59-3.726 9.316-5.59 20.961-6.521 34.469-2.329-7.453 0-18.632 0.466-24.687-3.261 5.124-5.124 1.397-5.124-0.932 0.466-3.726-1.397-3.261-2.795-4.658-5.124-4.658-8.384-9.782-12.11-17.7 2.329-6.055 2.795-14.905-4.658-19.563-2.329-1.397-5.124-3.726-6.521-7.453-1.863-5.124-5.124-11.179-4.193-19.097 0.466-2.329-6.987 5.124-11.179 1.863-18.166-12.576-36.332-27.016-58.224-39.127-11.645 0-20.029-4.192-24.221-9.316-3.726-4.658-0.932-10.713 4.658-11.179 3.261 0 6.987-0.932 9.782 0.932 0.466-1.863 2.329-4.192 4.657-4.192M157.904 16.215l0.932 0.466c4.658 0.932 6.987 7.453 12.11 5.124 0 3.261 0.466 6.521-0.466 8.85-1.397 3.726-5.59 3.726-8.85 3.726-31.208-1.863-49.374 11.179-68.471 22.358-5.124 3.261-10.713 5.59-14.906 9.782-20.029 18.632-41.921 35.866-47.045 70.335l-4.192 38.195c-0.466 4.192-5.124 8.384-4.192 13.508l3.26 22.824c-3.261-3.261-5.124 0.932-4.192 2.795 0.466 1.397 2.329 6.055 5.124 1.863 3.726 6.987 7.453 20.495 12.576 26.55 15.837 18.632 36.332 35.4 53.101 52.169 4.192-0.932 7.453-0.932 8.384-3.727 1.397 2.795-1.397 5.59-3.726 6.056 7.453 4.658 15.837 8.85 27.016 9.781 14.44 0.932 27.948 3.261 40.524 6.522 6.521-1.863 13.042-2.795 20.029-3.261 2.329 0 3.726-3.726 6.521-4.658l0.466-4.658c2.795 4.192 2.329-1.397 0.466-4.192 3.261 2.795 4.192 5.124 5.589 6.987 0-1.397 3.726-6.521 3.727-0.466l0.931-6.055c1.397-0.932 1.863 5.124 3.261 0.931 1.397-4.192 4.192-0.932 6.987-2.329-0.932 1.863-0.466 5.59 2.794 3.261l3.727-3.261c2.329 5.59 6.055 3.261 7.918 2.329 20.495-13.042 40.99-28.413 60.553-43.784l-0.466 6.055 2.329-7.453c2.329 2.329 4.192 0.466 5.124-0.931 2.795-4.658 6.521-9.316 12.577-13.508-7.453 20.029-16.303 35.866-27.482 48.908l-4.658 5.59c0 3.261-0.932 7.453-4.658 7.918-1.863 0.466-5.59-0.932-8.384 1.863-1.397 1.863 3.261 5.59-0.466 2.795-3.261-2.329-6.521 0-10.248 0.932-2.795 0.932 1.863 3.726 2.795 5.589 0.932 1.863 1.863 3.726 1.398 6.056l-5.124-5.59c-6.055 3.261-9.782 9.316-14.906 13.974-2.329 1.863-1.397 5.124-1.397 7.918-3.261 0-6.987-0.932-8.85 0.932-1.397 1.863-0.932 4.658-0.932 7.453-4.658-0.466-5.124-7.453-9.315-6.056-4.192 0.932-8.85 1.397-12.577 3.727 2.795 5.59-4.658 2.329-3.726 3.26-6.987-4.192-13.042-7.453-20.495-4.658-15.837-5.124-35.4-2.795-49.84-0.931 0-2.329 0.466-4.658-0.466-5.124-0.932 2.329-3.726 1.397-3.26 1.397-8.85-6.055-17.7-9.782-27.016-14.905-8.384 0.932-16.303-3.261-18.632-5.59-6.521-6.055-13.974-2.795-20.029-4.192-13.042-3.261-17.7-16.769-19.098-26.084-0.932-4.658-4.658-6.521-6.055-6.056-6.055-19.563-15.371-37.263-22.824-55.429-1.863-4.658-1.397-9.316-1.397-14.44 2.329 0.932 4.658 0.466 4.192-2.794-2.329-15.371-7.918-27.016-13.974-38.195 3.261-15.837 3.726-34.469 11.179-48.443 6.521-12.576 18.632-19.098 27.016-29.811 2.795-3.726 2.795-8.85 5.59-12.11 9.316-9.316 18.632-19.098 28.879-27.482 4.658-3.726 10.247 0 17.234-1.397 2.329-8.384 11.645-15.837 20.495-13.508 3.726 0.932 11.179-8.85 13.508-9.782 3.726-1.397 1.863 3.726 1.863 6.987 8.85-6.987 20.961-10.713 32.14-14.906" fill="#ffffff" fill-rule="nonzero" stroke="none" stroke-width="1" stroke-linecap="butt" stroke-linejoin="miter" stroke-miterlimit="10" stroke-dasharray="" stroke-dashoffset="0" font-family="none" font-weight="none" font-size="none" text-anchor="none" style="mix-blend-mode: normal" data-fill-palette-color="tertiary"></path></g><g transform="matrix(1,0,0,1,64,146.8550185873606)"><svg viewBox="0 0 192 66.28996282527879" height="66.28996282527879" width="192"><g><svg viewBox="0 0 192 66.28996282527879" height="66.28996282527879" width="192"><g><svg viewBox="0 0 192 66.28996282527879" height="66.28996282527879" width="192"><g><svg viewBox="0 0 192 66.28996282527879" height="66.28996282527879" width="192"><g id="textblocktransform"><svg viewBox="0 0 192 66.28996282527879" height="66.28996282527879" width="192" id="textblock"><g><svg viewBox="0 0 192 66.28996282527879" height="66.28996282527879" width="192"><g transform="matrix(1,0,0,1,0,0)"><svg width="192" viewBox="0.800000011920929 -36.849998474121094 107.58999633789062 37.14999771118164" height="66.28996282527879" data-palette-color="#ffffff"><path d="M16.85 0L11.8 0 11.8-32.35 0.8-32.35 0.8-36.85 27.85-36.85 27.85-32.35 16.85-32.35 16.85 0ZM40.55 0.3L40.55 0.3Q37.5 0.3 35.27-0.35 33.05-1 31.6-2.53 30.15-4.05 29.45-6.7 28.75-9.35 28.75-13.4L28.75-13.4Q28.75-17.6 29.45-20.28 30.15-22.95 31.6-24.45 33.05-25.95 35.3-26.53 37.55-27.1 40.55-27.1L40.55-27.1Q43.55-27.1 45.8-26.5 48.05-25.9 49.5-24.4 50.95-22.9 51.65-20.23 52.35-17.55 52.35-13.4L52.35-13.4Q52.35-9.3 51.65-6.63 50.95-3.95 49.52-2.45 48.1-0.95 45.85-0.33 43.6 0.3 40.55 0.3ZM40.55-3.8L40.55-3.8Q42.2-3.8 43.47-4.1 44.75-4.4 45.6-5.38 46.45-6.35 46.9-8.3 47.35-10.25 47.35-13.45L47.35-13.45Q47.35-16.65 46.9-18.57 46.45-20.5 45.6-21.45 44.75-22.4 43.47-22.73 42.2-23.05 40.55-23.05L40.55-23.05Q38.85-23.05 37.57-22.73 36.3-22.4 35.47-21.45 34.65-20.5 34.22-18.57 33.8-16.65 33.8-13.45L33.8-13.45Q33.8-10.25 34.22-8.3 34.65-6.35 35.47-5.38 36.3-4.4 37.57-4.1 38.85-3.8 40.55-3.8ZM63.8 0.3L63.8 0.3Q60.85 0.3 58.92-1.48 57-3.25 57-6.4L57-6.4 57-8.5Q57-11.6 59.12-13.58 61.25-15.55 65.55-15.55L65.55-15.55 73.9-15.55 73.9-18.35Q73.9-19.9 73.37-20.98 72.85-22.05 71.45-22.6 70.05-23.15 67.3-23.15L67.3-23.15 59.1-23.15 59.1-26.1Q60.9-26.5 63.32-26.8 65.75-27.1 69-27.15L69-27.15Q72.3-27.15 74.52-26.33 76.75-25.5 77.85-23.63 78.95-21.75 78.95-18.65L78.95-18.65 78.95 0 75 0 74.15-2.95Q73.85-2.75 72.9-2.23 71.95-1.7 70.47-1.1 69-0.5 67.27-0.1 65.55 0.3 63.8 0.3ZM66.1-3.35L66.1-3.35Q66.85-3.3 67.87-3.5 68.9-3.7 69.92-3.98 70.95-4.25 71.82-4.55 72.7-4.85 73.27-5.08 73.85-5.3 73.9-5.35L73.9-5.35 73.9-13.05 66.9-12.75Q64.3-12.6 63.17-11.45 62.05-10.3 62.05-8.45L62.05-8.45 62.05-7.25Q62.05-5.8 62.65-4.93 63.25-4.05 64.17-3.7 65.1-3.35 66.1-3.35ZM90.74 0L85.74 0 85.74-26.75 89.74-26.75 90.74-23.85Q92.54-25.15 95.02-26.18 97.49-27.2 100.14-27.2L100.14-27.2Q103.14-27.2 104.97-25.93 106.79-24.65 107.59-22.55 108.39-20.45 108.39-18L108.39-18 108.39 0 103.39 0 103.39-17.4Q103.39-19 102.77-20.18 102.14-21.35 101.04-22 99.94-22.65 98.34-22.65L98.34-22.65Q96.84-22.65 95.57-22.35 94.29-22.05 93.14-21.53 91.99-21 90.74-20.25L90.74-20.25 90.74 0Z" opacity="1" transform="matrix(1,0,0,1,0,0)" fill="#ffffff" class="undefined-text-0" data-fill-palette-color="primary" id="text-0"></path></svg></g></svg></g></svg></g></svg></g><g></g></svg></g></svg></g></svg></g></svg></g><defs></defs></svg><rect width="320" height="360" fill="none" stroke="none" visibility="hidden"></rect></g></svg></g></svg>